<svg xmlns="http://www.w3.org/2000/svg" viewBox="0 0 500 500"><g id="freepik--background-simple--inject-133"><g><path d="M429.596,173.5957c-4.75531-18.5843-14.87971-36.5052-30.76031-52.3992-18.7172-18.7329-47.8762-37.8733-86.0158-32.22-70.4115,10.4369-71.69389,60.5052-119.0374,50.5084-53.6266-11.3235-105.2487,9.3269-122.7413,60.1377-33.2249,96.508,114.381,186.8252,221.20499,154.0587,66.5041-20.3991,162.5993-81.4068,137.34981-180.0856Z" style="fill:#FCBE11;"></path><path d="M429.596,173.5957c-4.75531-18.5843-14.87971-36.5052-30.76031-52.3992-18.7172-18.7329-47.8762-37.8733-86.0158-32.22-70.4115,10.4369-71.69389,60.5052-119.0374,50.5084-53.6266-11.3235-105.2487,9.3269-122.7413,60.1377-33.2249,96.508,114.381,186.8252,221.20499,154.0587,66.5041-20.3991,162.5993-81.4068,137.34981-180.0856Z" style="fill:#fff; opacity:.9;"></path></g></g><g id="freepik--Question_Mark--inject-133"><path d="M130.4898,170.5152c0-15.7287,4.841-31.6643,14.5229-47.8068,9.6819-16.1426,23.808-29.5119,42.3783-40.1081,18.57029-10.5927,40.23559-15.8942,64.996-15.8942,23.01439,0,43.33059,4.4323,60.94849,13.2866,17.618,8.8577,31.2283,20.9025,40.8308,36.1345,9.6026,15.2354,14.4039,31.7884,14.4039,49.6694,0,14.073-2.7379,26.411-8.2138,37.0037-5.4758,10.5962-11.98339,19.7436-19.5226,27.4424-7.5392,7.6987-21.0701,20.6542-40.5927,38.8663-5.3965,5.1325-9.7216,9.6476-12.9754,13.5349-3.25369,3.8908-5.6742,7.4504-7.2614,10.6789s-2.81729,6.4571-3.69029,9.6856c-.87291,3.2285-2.18241,8.9025-3.92831,17.0118-3.01569,17.2221-12.4595,25.8281-28.3316,25.8281-8.2534,0-15.1974-2.8146-20.832-8.4439-5.6346-5.6257-8.4518-13.9902-8.4518-25.083,0-13.9074,2.0633-25.9523,6.19-36.1345,4.1268-10.1822,9.6026-19.1227,16.4276-26.8215,6.825-7.6988,16.0307-16.8462,27.6173-27.4424,10.1581-9.2716,17.4989-16.2667,22.0225-20.9853,4.5235-4.7186,8.3328-9.9718,11.4278-15.77,3.0951-5.7948,4.6426-12.0828,4.6426-18.8744,0-13.2452-4.7219-24.4208-14.1658-33.5269-9.4439-9.1026-21.6256-13.6591-36.54529-13.6591-17.45931,0-30.31561,4.5945-38.56911,13.7833-8.2534,9.1888-15.2371,22.7238-20.951,40.6048-5.3965,18.7122-15.634,28.0632-30.7124,28.0632-8.8884,0-16.3879-3.2665-22.4986-9.8097-6.1108-6.5398-9.1661-13.6177-9.1661-21.2337Z" style="fill:#FCBE11;"></path><g><path d="M244.98569,468.0617c-9.9414,0-18.61969-3.3575-26.035-10.0725-7.4153-6.7151-11.1229-16.1041-11.1229-28.1777,0-10.7101,3.5854-19.7201,10.75621-27.0302,7.17079-7.3065,15.97139-10.965,26.40169-10.965,10.26731,0,18.9049,3.6585,25.9127,10.965,7.0079,7.3101,10.5118,16.3201,10.5118,27.0302,0,11.9001-3.6669,21.2537-11.0007,28.0502-7.3338,6.7965-15.8084,10.2-25.4238,10.2Z" style="fill:#FCBE11;"></path><g style="opacity:.2;"><path d="M246.99449,401.4639c-.9786-.9716-2.4667-1.1776-3.8438-1.2497-3.8513-.2015-7.3803,.3238-11.0863,1.3909-5.5049,2.1059-10.1898,6.2812-12.913,11.5083s-3.46039,11.4592-2.0316,17.1773c.6486,2.5959,2.3701,5.524,5.0431,5.405,1.76811-.0788,3.1448-1.498,4.3233-2.8184,2.809-3.1473,5.618-6.2945,8.4271-9.4418,4.2071-4.7136,8.4449-9.4693,11.6153-14.9343,1.2736-2.1954,2.2671-5.2491,.4659-7.0373Z" style="fill:#fff;"></path></g></g></g><g id="freepik--Speech_Bubble--inject-133"><g><g><path d="M301.68389,59.0443c-10.07289-7.4328-24.2641-5.2925-31.6968,4.7804-5.7382,7.7764-5.7485,17.9957-.8303,25.6765l-1.8312,6.5569,7.1512-.7749c.1003,.0766,.1888,.163,.2909,.2382,10.0728,7.4328,24.2639,5.2923,31.6966-4.7805,7.43271-10.073,5.2925-24.2641-4.7804-31.6966Z" style="fill:#FCBE11;"></path><path d="M301.68389,59.0443c-10.07289-7.4328-24.2641-5.2925-31.6968,4.7804-5.7382,7.7764-5.7485,17.9957-.8303,25.6765l-1.8312,6.5569,7.1512-.7749c.1003,.0766,.1888,.163,.2909,.2382,10.0728,7.4328,24.2639,5.2923,31.6966-4.7805,7.43271-10.073,5.2925-24.2641-4.7804-31.6966Z" style="fill:#fff; opacity:.7;"></path><path d="M313.75098,76.70752h-.00781c-.1377-.00439-.24609-.11914-.24219-.25732,.21484-7.25439-3.52344-14.58105-9.52246-18.66553-.11426-.07764-.14355-.23291-.06641-.34717,.07812-.11426,.23438-.14355,.34766-.06592,6.13672,4.17822,9.96094,11.67285,9.74121,19.09326-.00391,.13574-.11523,.24268-.25,.24268Z" style="fill:#FCBE11;"></path><path d="M312.99219,83.38672c-.03027,0-.06055-.00537-.08984-.0166-.12891-.0498-.19336-.19434-.14355-.32324,.38965-1.01172,.57031-2.11914,.52246-3.20312-.00586-.13818,.10059-.25488,.23926-.26074,.12988-.01172,.25488,.10059,.26074,.23828,.05078,1.15234-.1416,2.33008-.55566,3.40527-.03809,.09912-.13281,.16016-.2334,.16016Z" style="fill:#FCBE11;"></path></g><path d="M286.75479,78.3957c.3815-.6483,.938-1.3636,1.6686-2.1461,.536-.5725,.9293-1.0543,1.1808-1.4451,.2523-.3907,.3781-.8342,.3781-1.3312,0-.7052-.2396-1.2633-.7187-1.6736-.4792-.4103-1.1163-.6151-1.91159-.6151-.76371,0-1.44161,.186-2.03381,.5582-.593,.3712-1.0917,.892-1.4977,1.5589l-2.9472-2.0312c.6822-1.2209,1.6032-2.1656,2.7645-2.8333,1.1605-.6678,2.5367-1.0016,4.128-1.0016,1.8673,0,3.365,.468,4.4933,1.4025,1.1282,.9346,1.6923,2.2318,1.6923,3.8919,0,.7824-.1096,1.4688-.3288,2.0601s-.4868,1.0925-.80359,1.502c-.31611,.4103-.72641,.8827-1.22931,1.4171-.60069,.6295-1.0391,1.1588-1.3152,1.5878-.2761,.4291-.41449,.949-.41449,1.5598h-3.677c0-.9923,.19039-1.8121,.57179-2.4611Zm-.389,8.6734c-.4469-.4524-.6703-1.003-.6703-1.6524,0-.6486,.2191-1.1909,.6574-1.6265,.4384-.435,.99911-.6533,1.6805-.6533,.6822,0,1.242,.2183,1.6804,.6533,.4384,.4356,.6576,.9779,.6576,1.6265,0,.6494-.2226,1.2-.66939,1.6524-.44691,.4526-1.00251,.6784-1.66861,.6784-.6652,0-1.2216-.2258-1.6676-.6784Z" style="fill:#FCBE11;"></path></g></g><g id="freepik--Character--inject-133"><g><g><path d="M185.6436,113.9348c-.325-5.3134,2.3784-9.861,6.1483-10.6-.2455-.0176-.4931-.021-.7429-.0057-4.1481,.2537-7.2304,5.0426-6.8846,10.6962s3.9889,10.0311,8.137,9.7773c.2496-.0153,.4949-.0487,.7362-.0961-3.8316-.2742-7.069-4.4585-7.394-9.7717Z" style="fill:#263238;"></path><ellipse cx="192.25617" cy="113.52063" rx="7.29117" ry="10.20128" style="fill:#fff; opacity:.5;"></ellipse><path d="M196.775,106.2939l-11.5078,10.1368c.146,.797,.4774,1.7088,.8826,2.6662l11.8902-10.6867c-.2775-.7267-.7237-1.4285-1.265-2.1163Z" style="fill:#fff; opacity:.5;"></path><path d="M195.2096,104.5872l-10.2327,9.6693,.091,.8573,10.8689-9.7703c-.2775-.7268-.2363-.4803-.7272-.7563Z" style="fill:#fff; opacity:.5;"></path><path d="M200.66509,113.016c-.3458-5.6536-3.9888-10.0311-8.1369-9.7774-.2496,.0153-.4949,.0488-.7363,.0962,3.8317,.2742,7.069,4.4585,7.3941,9.7717,.325,5.3134-2.6134,9.8765-6.3833,10.6154,.2455,.0175,.7281,.0056,.9778-.0097,4.1481-.2538,7.2304-5.0426,6.8846-10.6962Z" style="fill:#263238;"></path><path d="M191.3359,123.7219h2.1049v14.8649c0,.57068-.46332,1.034-1.034,1.034h-.037c-.57062,0-1.0339-.46328-1.0339-1.0339v-14.865h0Z" style="fill:#263238;"></path><path d="M212.99309,151.0565l-8.3492,13.1097-9.04889-24.3921-5.9777,1.3804s2.8288,30.1833,7.533,34.8494c3.4602,3.4321,8.5022,3.6864,12.1093,.8469,3.5529-2.7969,15.3543-17.5781,15.3543-17.5781l-11.6208-8.2162Z" style="fill:#b97964;"></path><path d="M189.6579,142.3084s-2.8138-9.2654-2.9402-10.2853,7.0265-6.3969,8.2304-6.9484c1.2039-.5515,1.7061,1.3749,1.2419,1.9859,0,0,.0692,.0469,.1808,.1303,1.2484,.9333,1.413,2.746,.3715,3.9056h0s.3372,.1231,.6191,.8645c.5334,1.4025-.8582,2.9026-.8582,2.9026,0,0,1.1584,5.5567-.1956,6.2851-1.4253,.7668-2.5852,1.3417-2.6084,1.1856l-4.0413-.0259Z" style="fill:#b97964;"></path><path d="M191.7919,137.5158l1.9188-1.4315v3.2866c0,.6392-.4295,1.1575-.9594,1.1575h0c-.5298,0-.9594-.5183-.9594-1.1575v-1.8551Z" style="fill:#263238;"></path></g><g><polygon points="245.57789 369.9573 246.878 383.59 257.13129 384.712 258.17149 370.0518 245.57789 369.9573" style="fill:#b97964;"></polygon><g><path d="M244.65729,381.4141c-.0212-.5381,.4475-.9655,.975-.9451l3.1169,.12c.7877,.011,1.5909,1.4764,2.0477,2.131,1.9699,2.8233,3.4925,1.7877,5.711-.81,1.39-.1458,1.742,1.4837,1.8494,1.9218l2.473,9.6882c.2152,.8092-.2535,1.6429-1.0471,1.8625-.1411,.039-.2869,.0567-.43319,.0523-4.22691-.0587-6.22681-.0864-11.48771-.1596l-16.0895-.2236c-4.386-.0609-5.2347-4.581-3.4226-4.973,8.14881-1.718,13.9343-4.0759,16.4777-6.4511,.3549-.3128-.132-1.2262-.1706-2.2134Z" style="fill:#263238;"></path><path d="M246.08398,386.6377c-.08496,0-.16748-.04297-.21436-.12109-.5957-.99414-1.625-1.69141-2.75342-1.86426-.13623-.02051-.22998-.14844-.20898-.28516,.021-.13574,.14893-.23047,.28516-.20898,1.27344,.19531,2.43457,.98047,3.10596,2.10059,.07129,.11914,.03271,.27246-.08594,.34375-.04004,.02344-.08447,.03516-.12842,.03516Z" style="fill:#fff;"></path><path d="M243.77393,387.98145c-.08496,0-.16748-.04297-.21436-.12109-.5957-.99512-1.625-1.69238-2.75391-1.86523-.13623-.02051-.22998-.14844-.20898-.28516,.021-.13574,.14893-.23047,.28516-.20898,1.27441,.19531,2.43555,.98145,3.10645,2.10156,.07129,.11914,.03271,.27246-.08594,.34375-.04004,.02344-.08447,.03516-.12842,.03516Z" style="fill:#fff;"></path><path d="M240.93018,389.33496c-.08496,0-.16748-.04297-.21436-.12109-.5957-.99512-1.625-1.69238-2.75342-1.86426-.13672-.02051-.23047-.14844-.20947-.28516,.021-.13574,.15234-.22656,.28467-.20898,1.27441,.19434,2.43555,.97949,3.10693,2.10059,.07129,.11914,.03271,.27246-.08594,.34375-.04004,.02344-.08447,.03516-.12842,.03516Z" style="fill:#fff;"></path></g></g><g><polygon points="328.87309 348.7027 339.90529 356.6119 347.55889 349.609 337.277 339.2244 328.87309 348.7027" style="fill:#b97964;"></polygon><g><path d="M336.70209,356.9642c-.4159-.3355-.4312-.976-.0738-1.3692l2.1118-2.3234c.5192-.5999,2.1356-.261,2.921-.1851,3.388,.3274,3.6018-1.5229,3.0995-4.9305,.7929-1.1665,2.239-.3726,2.6361-.1689l8.8452,4.4269c.7444,.3631,1.0635,1.2693,.7128,2.0245-.0624,.1342-.1438,.2582-.242,.368-2.786,3.2189-4.1041,4.742-7.5718,8.7483l-10.605,12.2526c-2.89089,3.3401-6.8196,1.0396-5.937-.6131,4.0024-7.4027,5.9934-13.4023,5.8682-16.9147-.0035-.4781-1.0022-.7-1.765-1.3154Z" style="fill:#263238;"></path><path d="M338.09863,360.26465c-.06934,0-.13867-.02832-.1875-.08496-.0918-.10352-.08105-.26172,.02246-.35254,.97363-.85449,2.31641-1.23828,3.58984-1.02051,.13574,.02246,.22754,.15137,.2041,.28809-.02246,.13574-.14355,.23047-.28809,.2041-1.12402-.18555-2.31445,.14746-3.17578,.90332-.04785,.04199-.10645,.0625-.16504,.0625Z" style="fill:#fff;"></path><path d="M337.60352,362.92285c-.06934,0-.13867-.02832-.1875-.08496-.0918-.10352-.08105-.26172,.02246-.35254,.97461-.85449,2.31543-1.2373,3.58984-1.02051,.13574,.02246,.22754,.15137,.2041,.28809-.02246,.13574-.14551,.23438-.28809,.2041-1.12598-.18457-2.31445,.14844-3.17578,.90332-.04785,.04199-.10645,.0625-.16504,.0625Z" style="fill:#fff;"></path><path d="M336.77051,365.99902c-.06934,0-.13867-.02832-.1875-.08496-.0918-.10352-.08105-.26172,.02246-.35254,.97266-.85449,2.31543-1.23828,3.58984-1.02051,.13574,.02246,.22754,.15137,.2041,.28809-.02246,.13574-.14355,.23047-.28809,.2041-1.12598-.18555-2.31445,.14746-3.17578,.90332-.04785,.04199-.10645,.0625-.16504,.0625Z" style="fill:#fff;"></path></g></g><g><path d="M232.29089,212.1677s8.1718,104.3041,8.2376,104.8857l5.1114,61.05h13.271s.09-3.5153,.78111-8.1461c6.05469-40.5918-.15451-53.7093-.15451-53.7093,0,0,5.3308-78.3651,7.1956-84.2709,.1864-.6153-6.1645-45.5247-34.4422-19.8094Z" style="fill:#263238;"></path><path d="M232.08879,212.0386l.3666,.6101c5.4692,7.401,15.8332,15.2825,21.2484,22.0431l1.8849,4.265s39.4334-30.5691,13.8031-43.1661c-1.0654-.5237-8.9111-4.7187-8.9111-4.7187-6.7896-1.6666-28.3919,20.9666-28.3919,20.9666Z" style="fill:#263238;"></path><path d="M291.01389,239.0561c2.1464,13.3528,8.8139,47.842,12.5898,60.8175,0,0,11.6181,6.6485,18.188,14.0872l20.9682,29.5212-9.3555,8.3982-38.2417-27.9733c-8.6459-6.5103-12.1489-11.3343-15.541-17.6838-8.2982-15.505-12.3948-35.2517-17.3479-50.8568-2.29279-7.2363-11.1052-30.5464-10.35379-38.0418,1.00169-10.1446,1.36009-26.5503,13.68639-20.9716,11.7924,3.4646,18.7844,5.6675,25.4075,42.7032Z" style="fill:#263238;"></path><polygon points="261.68719 258.8637 251.98929 223.04 240.93029 219.3513 249.56329 227.3993 261.68719 258.8637" style="isolation:isolate; opacity:.2;"></polygon></g><path d="M217.51969,145.4952c-3.5866,2.9705-9.9319,13.1156-9.9319,13.1156l14.2836,8.0932s7.3008-10.6258,6.55161-15.3505c-.781-4.923-5.50181-8.2266-10.90331-5.8583Z" style="fill:#263238;"></path><path d="M217.51969,145.4952c-3.5866,2.9705-9.9319,13.1156-9.9319,13.1156l14.2836,8.0932s7.3008-10.6258,6.55161-15.3505c-.781-4.923-5.50181-8.2266-10.90331-5.8583Z" style="fill:#fff; opacity:.5;"></path><path d="M216.75329,163.5086v-10.1598s-4.1568,12.1299-3.2028,14.3105c.954,2.1807,1.3351,3.3149,1.3351,3.3149l1.598-1.8517,.2697-5.6139Z" style="opacity:.3;"></path><path d="M269.03619,189.5273c-3.0721-3.5218-5.0789-7.8431-5.7895-12.4621-1.0835-7.0427-2.5634-16.8855-2.3965-17.6573l.4815-18.9915c-4.1976-4.1975-19.7809-4.2404-19.7809-4.2404l-10.4533,2.6655s-3.8824,1.7087-7.1357,3.5296c-4.3431,2.4311-6.6265,2.559-7.2244,5.3532,0,0-.854,9.1552-1.0879,18.4347-.08349,3.3116,15.2868,33.7466,15.4814,39.4791l.0038,9.3324c22.2792,11.2221,45.6829-16.5232,45.6829-16.5232l-7.7814-8.92Z" style="fill:#263238;"></path><path d="M269.03619,189.5273c-3.0721-3.5218-5.0789-7.8431-5.7895-12.4621-1.0835-7.0427-2.5634-16.8855-2.3965-17.6573l.4815-18.9915c-4.1976-4.1975-19.7809-4.2404-19.7809-4.2404l-10.4533,2.6655s-3.8824,1.7087-7.1357,3.5296c-4.3431,2.4311-6.6265,2.559-7.2244,5.3532,0,0-.854,9.1552-1.0879,18.4347-.08349,3.3116,15.2868,33.7466,15.4814,39.4791l.0038,9.3324c22.2792,11.2221,45.6829-16.5232,45.6829-16.5232l-7.7814-8.92Z" style="fill:#fff; opacity:.5;"></path><path d="M261.70979,166.8016s-9.7662-8.819-9.2716-12.9456l8.305,4.4621,.556,5.5882,.4106,2.8953Z" style="opacity:.3;"></path><g><path d="M268.86949,148.7054c.2266,.335,14.3703,16.256,20.05451,22.2831,1.219,1.2925,2.162,2.8166,2.77569,4.4839l11.6615,32.5911-7.3038,2.1847-16.764-31.523-21.06939-17.8254,10.64549-12.1944Z" style="fill:#b97964;"></path><path d="M295.78279,207.6326s-1.9512,2.229-1.7602,4.6712c.1908,2.442-.30659,4.4429-.0391,6.2486,.2674,1.8057,1.5874-.2746,2.0659-1.5234,.4781-1.2486,1.033-2.6593,1.9128-2.1483,.88,.5108,5.2589,8.0873,6.5593,8.6566,1.30051,.5698,.97551-.8773,.97551-.8773,0,0,1.11309,1.8115,1.95079,1.566,.2175-.0637,.6201-.5649,.2423-1.4699-.85009-2.0359-2.85409-6.2171-2.85409-6.2171,.11009,.2424,2.95229,5.2264,3.47529,5.9174,.6838,.903,1.4668,.9802,1.9773,.5665,.7268-.5884-2.5867-6.888-2.54059-7.2514,0,0,1.78619,3.6905,2.99119,3.7508,1.2051,.0603,.2074-2.3243-1.0716-4.2598-1.1727-1.7742-3.0084-5.5618-4.3753-7.2498-1.68429-2.08-3.2825-3.0983-5.7116-2.4668-2.4292,.6317-3.7979,2.0867-3.7979,2.0867Z" style="fill:#b97964;"></path><path d="M258.64989,138.9859c4.7373,.3038,13.3366,12.149,13.3366,12.149l-11.1339,12.5836s-10.4444-9.117-10.6234-15.219c-.1377-5.1572,2.404-9.9093,8.4207-9.5136Z" style="fill:#263238;"></path><path d="M258.64989,138.9859c4.7373,.3038,13.3366,12.149,13.3366,12.149l-11.1339,12.5836s-10.4444-9.117-10.6234-15.219c-.1377-5.1572,2.404-9.9093,8.4207-9.5136Z" style="fill:#fff; opacity:.5;"></path></g><g><path d="M224.445,93.713c-6.50281,2.6856-9.30971,7.8391-10.09381,11.8176-.4538,5.4921,.5744,9.6471,.8871,15.1342l20.9062-28.5323c-3.4437,.0048-4.7816-.9697-11.69949,1.5805Z" style="fill:#263238;"></path><path d="M232.12729,92.3477c6.0935-1.4908,10.8643,2.6352,13.5715,5.3823,2.8256,3.639,3.93721,8.344,3.0545,12.9285-.9231,4.2667-2.0419,9.4387-5.0968,11.1534-1.721,1.0026-3.7699,1.2429-5.646,.6626l-16.79049-23.6289c3.04249-3.048,6.79669-5.2846,10.90729-6.4979Z" style="fill:#263238;"></path><path d="M240.25889,127.5392c-.0014-.1633-.0144-.3263-.0385-.4874-.099-.7355-.42039-1.4181-.92039-1.9549-1.327-1.5045-3.62341-1.6163-5.12911-.2496l-.0041,.0037-5.8103,2.5833c-.0063,.0858-.0127,.1719-.0197,.2685l1.0513,8.5549c.1638,2.5455-2.7154,4.6385-4.3308,5.7601-.9705,.7504-2.9029,7.7062,3.5721,12.8559,1.9095,1.5291,4.8601-.9653,6.7759-2.6288,7.8882-7.5947,7.72171-14.598,7.72171-14.598-2.92191-2.6691-3.12451-4.4586-2.86811-10.1077Z" style="fill:#b97964;"></path><path d="M226.22689,126.9334c.0503-.0796,.0878-.1662,.11111-.2572h0l6.29989-.5822c1.8809-.7706,4.0007,.1131,4.7424,1.977,.2892,.5166,1.0194-3.136,.2565,1.6373l-.0117,.0747-8.32409,5.8526s-1.01241-6.9448-1.06-6.9669c-.04751-.0221-2.01411-1.7353-2.01411-1.7353Z" style="isolation:isolate; opacity:.2;"></path><path d="M245.33879,111.2843c-2.3544,9.8215-3.1314,14.0118-8.9549,18.4454-8.765,6.6547-20.0637,2.1801-20.677-8.0363-.4808-9.1842,3.39511-23.6828,13.63111-26.3777,10.23629-2.6949,18.34989,6.134,16.00079,15.9686Z" style="fill:#b97964;"></path><path d="M247.85849,120.594c-1.4537,1.9331-3.54849,3.0157-5.37249,3.2641-2.74331,.3736-3.55821-4.0624-2.30451-6.6314,1.1288-2.3125,3.9459-3.6138,6.4632-2.803,2.48,.7988,2.8762,3.9601,1.2138,6.1703Z" style="fill:#b97964;"></path><path d="M242.31494,119.68506c-.01611,0-.03271-.00146-.04932-.00488-.13525-.02686-.22314-.1582-.19629-.29395,.20068-1.01416,.80664-1.93457,1.66162-2.5249,.85547-.59131,1.92432-.82959,2.93896-.64893,.13574,.02393,.22656,.15332,.20264,.28955s-.15576,.22852-.28955,.20264c-.88232-.15381-1.81982,.05127-2.56787,.56787-.74902,.51709-1.2793,1.32324-1.45557,2.21143-.02344,.11865-.12793,.20117-.24463,.20117Z" style="opacity:.2;"></path><path d="M231.62789,112.9996c-.1876,1.0598-.8766,1.8704-1.5384,1.8108-.6617-.0595-1.0457-.9665-.858-2.026,.1876-1.0594,.8764-1.8703,1.5381-1.8107,.6618,.0594,1.046,.9663,.8583,2.0259Z" style="fill:#263238;"></path><path d="M221.73449,111.8721c-.1842,1.0264-.8684,1.8106-1.5281,1.7515-.6597-.0594-1.0453-.9393-.86139-1.9662,.18429-1.0262,.86839-1.8106,1.52829-1.7511,.65971,.0588,1.0453,.9392,.8612,1.9658Z" style="fill:#263238;"></path><path d="M234.20439,109.5223c-.1298,.0001-.2546-.0516-.342-.1543-1.35939-1.6074-3.1659-1.2963-3.1867-1.2926-.2679,.0466-.5099-.1286-.53469-.3992-.02421-.2703,.17579-.5292,.44739-.5797,.0944-.0166,2.3618-.4094,4.04861,1.586,.16809,.1988,.131,.5138-.08251,.7033-.1033,.0909-.2287,.1364-.3501,.1365Z" style="fill:#263238;"></path><path d="M219.06249,106.4515c-.0966-.0452-.171-.13-.2011-.2453-.0617-.2383,.0877-.5153,.3331-.6189,2.4621-1.039,4.0347,.1327,4.1007,.1843,.1861,.1427,.1976,.4338,.0253,.6508-.17149,.2166-.4616,.2765-.6479,.1351-.0609-.0468-1.2959-.9348-3.25359-.1082-.12671,.0532-.25441,.0502-.35651,.0022Z" style="fill:#263238;"></path><path d="M224.49049,111.6799s-2.0598,3.5939-4.1366,5.7462c-.36289,.3761-.2491,.9967,.2092,1.2278,1.17991,.5949,2.684,.3417,2.684,.3417l1.2434-7.3157Z" style="fill:#a24e3f;"></path><path d="M231.14189,111.0594l-2.2324-.8011s1.0358,1.8625,2.2324,.8011Z" style="fill:#263238;"></path><path d="M221.107,109.9562l-2.23241-.8012s1.0357,1.8624,2.23241,.8012Z" style="fill:#263238;"></path><path d="M223.30229,121.8312c.6161,1.0786,1.3088,3.1477,1.3088,3.1477,.2-.0326,.39991-.0653,.59791-.1083,2.70129-.5112,3.80319-1.6383,4.20519-2.7328,.2179-.5993,.2192-1.1951,.1579-1.669-.0653-.5488-.2374-.9227-.2374-.9227-1.2868,1.124-3.7724,1.794-5.1138,2.0963-.5604,.1326-.9186,.1888-.9186,.1888Z" style="fill:#263238;"></path><path d="M224.22089,121.6424l.4102,.9177c2.5432-.4876,4.2752-1.1712,4.941-2.0913-.0653-.5488-.2374-.9227-.2374-.9227-1.2868,1.124-3.7724,1.794-5.1138,2.0963Z" style="fill:#fff;"></path><path d="M225.209,124.8706c2.70129-.5112,3.80319-1.6383,4.20519-2.7328-.9143,.2095-1.9957,.5638-2.8987,1.1604-.692,.4536-1.07849,1.0248-1.30649,1.5724Z" style="fill:#de5753;"></path><path d="M241.41859,113.0161s-4.2175-7.5493-3.1993-13.0918c0,0-19.1024-8.4455-21.0166,9.3244,0,0-1.0821-15.9088,15.8469-15.1206,16.9289,.7882,15.658,22.9733,6.6033,29.0017-.0121-.0832,4.3633-5.3928,1.7657-10.1137Z" style="fill:#263238;"></path><path d="M225.12769,94.8073c-2.6083,1.6538-4.6386,4.0856-5.7965,6.9431-.4643,2.1462,2.1085,4.2734,2.1085,4.2734l4.5646-3.9777-.8895,4.1117c5.9557,.5098,9.9899-1.9276,12.9498-6.0128l-1.9844-6.4603s-8.6584-.1762-10.9525,1.1226Z" style="fill:#263238;"></path><path d="M289.25079,110.6903c-1.2896,1.2302-3.0592,1.8138-4.7427,1.564,1.44591-1.5307,2.0506-3.9758,1.5122-6.1145-5.6219,2.23-12.3288,5.0144-17.7131,2.1486-2.4676-1.3133-4.0585-4.1387-6.0318-6.247-1.9733-2.1082-4.12439-4.1847-6.7558-5.0154-2.6315-.8308-8.3402,1.3311-9.77259,3.9248l-.34481,5.1041c2.7176-.5167,6.9953,1.4629,8.1907,4.2281,1.1955,2.7653,2.2576,4.7647,3.74711,7.3472,1.88609,3.2699,3.74269,5.3347,6.94589,6.7631,1.4627,.6523,4.7817,1.3656,9.7115,1.0474,3.9092-.2524,7.9258-1.102,11.1749-3.5278,3.2491-2.4256,5.4474-7.1432,4.0785-11.2226Z" style="fill:#263238;"></path></g></g></g></svg>
